<svg width="24" height="24" viewBox="0 0 24 24" fill="none" xmlns="http://www.w3.org/2000/svg">
<g id="Icon">
<g id="Group">
<path id="Vector" d="M13.5374 12.2276C13.5374 15.9983 10.5069 19.0551 6.76883 19.0551C3.03073 19.0551 0 15.9976 0 12.2276C0 8.45758 3.0305 5.3999 6.76883 5.3999C10.5072 5.3999 13.5374 8.45688 13.5374 12.2276Z" fill="white"/>
<path id="Vector_2" d="M20.9632 12.2276C20.9632 15.7769 19.4479 18.6553 17.5788 18.6553C15.7096 18.6553 14.1943 15.7769 14.1943 12.2276C14.1943 8.67824 15.7094 5.7998 17.5785 5.7998C19.4477 5.7998 20.9629 8.67732 20.9629 12.2276" fill="white"/>
<path id="Vector_3" d="M23.9995 12.2275C23.9995 15.4068 23.4667 17.9857 22.8092 17.9857C22.1517 17.9857 21.6191 15.4075 21.6191 12.2275C21.6191 9.04748 22.152 6.46924 22.8092 6.46924C23.4665 6.46924 23.9995 9.04725 23.9995 12.2275Z" fill="white"/>
</g>
</g>
</svg>
